<?xml version="1.0" encoding="utf-8"?><svg viewBox="0 0 58 30" xmlns="http://www.w3.org/2000/svg" xmlns:xlink="http://www.w3.org/1999/xlink"><style>:root>svg{display:none}:root>svg:target{display:block}</style><svg viewBox="0 0 30 30" id="arrow" xmlns="http://www.w3.org/2000/svg"><path fill-rule="evenodd" clip-rule="evenodd" d="M0 15a1 1 0 011-1h28a1 1 0 110 2H1a1 1 0 01-1-1z"/><path fill-rule="evenodd" clip-rule="evenodd" d="M15 30a1 1 0 01-1-1V1a1 1 0 112 0v28a1 1 0 01-1 1z"/></svg><svg viewBox="0 0 58 8" id="arrow-type-1" xmlns="http://www.w3.org/2000/svg"><path fill-rule="evenodd" clip-rule="evenodd" d="M54.422.465l3.182 3.182a.5.5 0 010 .707l-3.182 3.182a.5.5 0 11-.707-.707L56.043 4.5H.25v-1h55.793l-2.328-2.328a.5.5 0 11.707-.707z"/></svg><svg viewBox="0 0 10 20" id="star-icon" xmlns="http://www.w3.org/2000/svg"><path d="M5.327 17.873A7.86 7.86 0 015.25 19.5c0-.565.027-1.107.077-1.627A10.97 10.97 0 00.75 9.5c1.422-.474 4.19-2.744 4.476-8.088A9.739 9.739 0 015.25.5c0 .313-.008.617-.024.912.043 2.402.867 6.334 4.024 8.088-1.199.9-3.476 3.739-3.923 8.373z"/></svg></svg>